<svg width="91" height="91" viewBox="0 0 91 91" fill="none" xmlns="http://www.w3.org/2000/svg">
<g id="Group 6356644">
<g id="Group">
<path id="Vector" d="M3 45.3433C3 22.1488 21.8055 3.34326 45 3.34326C68.1945 3.34326 87 22.1488 87 45.3433C87 68.5378 68.1945 87.3433 45 87.3433C21.8055 87.3433 3 68.5378 3 45.3433Z" fill="#FFB031"/>
<path id="Vector_2" d="M11.085 70.1163L11.5399 69.1852C13.0345 66.1297 15.845 63.9317 19.1665 63.2142C22.2185 62.5562 25.2915 62.0138 28.3855 61.5938L31.35 61.1877V61.1738H58.545L58.552 61.1667L58.559 61.1738L61.6145 61.5902C64.7085 62.0137 67.7815 62.5527 70.8335 63.2107C74.1585 63.9282 76.969 66.1262 78.46 69.1817L78.915 70.1127H78.9185C71.278 80.5602 58.93 87.3432 45 87.3432C31.07 87.3432 18.722 80.5603 11.085 70.1163Z" fill="#6B6B6B"/>
<path id="Vector_3" d="M18.022 38.2767L18.015 38.6862L18.0185 39.0957L18.029 39.4142L18.0465 39.7292L18.071 40.0442L18.1025 40.3557L18.141 40.6637L18.1865 40.9717L18.2355 41.2762L18.2915 41.5807L18.3545 41.8817L18.4245 42.1792L18.498 42.4767L18.5785 42.7707L18.666 43.0647L18.757 43.3552L18.855 43.6457L18.9565 43.9327L19.121 44.3597L19.296 44.7832L19.4815 45.2032L19.674 45.6197L19.877 46.0327L20.087 46.4422L20.528 47.2507L20.9935 48.0452L21.48 48.8292L21.984 49.6027L22.502 50.3692L23.517 51.8007L24.567 53.2042L25.652 54.5832L26.765 55.9377L29.0645 58.5872L31.441 61.1737C32.113 61.8877 32.7885 62.5982 33.4675 63.3052C36.621 66.5812 39.6905 69.9377 42.6725 73.3712C42.767 73.4797 42.8685 73.5812 42.977 73.6757C44.2615 74.7922 46.2075 74.6557 47.3205 73.3712C50.3025 69.9377 53.372 66.5812 56.5255 63.3052L59.4445 60.2182L62.276 57.0577L63.6445 55.4372L64.9745 53.7852L66.259 52.0982L67.491 50.3727L68.009 49.6062L68.513 48.8327L68.9995 48.0487L69.465 47.2542L69.906 46.4457L70.116 46.0362L70.319 45.6232L70.5115 45.2067L70.697 44.7867L70.872 44.3632L71.0365 43.9362L71.138 43.6492L71.236 43.3587L71.327 43.0682L71.4145 42.7742L71.495 42.4802L71.5685 42.1827L71.6385 41.8852L71.7015 41.5842L71.7575 41.2797L71.8065 40.9752L71.852 40.6672L71.8905 40.3592L71.922 40.0477L71.9465 39.7327L71.964 39.4177L71.9745 39.0992L71.978 38.6897L71.971 38.2802L71.95 37.8392L71.915 37.3982L71.866 36.9607L71.803 36.5232L71.7295 36.0892L71.642 35.6552L71.544 35.2247L71.4355 34.7942L71.3165 34.3672L71.1835 33.9402L71.0435 33.5167L70.893 33.0932L70.732 32.6732L70.5605 32.2532L70.382 31.8367L70.1965 31.4202L69.7975 30.5977L69.374 29.7822L68.9225 28.9772L68.45 28.1827L67.9565 27.3987L67.449 26.6217L66.399 25.1027L65.2615 23.5557L64.0995 22.0507L62.913 20.5842L61.7055 19.1492L59.2345 16.3527L56.7075 13.6157L55.6365 12.5377L55.087 12.0162L54.527 11.5122L53.9565 11.0257L53.666 10.7912L53.3755 10.5637L53.0815 10.3432L52.784 10.1297L52.483 9.92322L52.1785 9.72372L51.8705 9.53122L51.559 9.34572L51.244 9.17072L50.9255 9.00272L50.6035 8.84522L50.278 8.69822L49.949 8.56172L49.6165 8.43572L49.2805 8.32022L49.109 8.26772L48.9375 8.21872L48.766 8.17322L48.5945 8.13122L48.4195 8.08922L48.2445 8.05072L48.0695 8.01572L47.8945 7.98422L47.716 7.95622L47.5375 7.93172L47.359 7.91072L47.177 7.89322L46.995 7.87922L46.813 7.86872C45.609 7.80922 44.4015 7.80922 43.194 7.86872L42.956 7.88272L42.7215 7.90372L42.487 7.92822L42.256 7.95972L42.0285 7.99822L41.801 8.04022L41.577 8.08922L41.353 8.14172L41.1325 8.20122L40.912 8.26422L40.695 8.33422L40.478 8.40772L40.261 8.48472L40.0475 8.56522L39.834 8.65272L39.624 8.74372L39.414 8.83822L39.2075 8.93622L39.001 9.04122L38.798 9.14972L38.392 9.37722L37.993 9.61872L37.601 9.87072L37.2125 10.1367L36.831 10.4167L36.453 10.7072L36.0785 11.0082L35.711 11.3162L35.347 11.6347L34.9865 11.9602L34.2795 12.6322L33.5865 13.3252L32.2425 14.7462L30.944 16.1672L29.0365 18.3022L27.171 20.4897L25.3545 22.7507L24.469 23.9162L23.601 25.1097L22.551 26.6287L22.0435 27.4057L21.55 28.1897L21.0775 28.9842L20.626 29.7892L20.199 30.6047L19.8035 31.4272L19.618 31.8437L19.4395 32.2602L19.268 32.6802L19.107 33.1002L18.9565 33.5237L18.8165 33.9472L18.6835 34.3742L18.561 34.8012L18.4525 35.2317L18.3545 35.6622L18.267 36.0962L18.1935 36.5302L18.1305 36.9677L18.0815 37.4052L18.0465 37.8462L18.022 38.2767Z" fill="#757575"/>
<path id="Vector_4" d="M22.033 42.4872L22.0295 42.6482V42.8092L22.033 42.9702L22.04 43.1312L22.0505 43.2922L22.0645 43.4532L22.082 43.6142L22.103 43.7752L22.1275 43.9362L22.1555 44.0972L22.187 44.2582L22.2185 44.4192L22.257 44.5767L22.2955 44.7377L22.3375 44.8952L22.432 45.2137L22.537 45.5287L22.6035 45.7142L22.6735 45.8962L22.824 46.2637L22.9885 46.6277L23.167 46.9882L23.356 47.3452L23.5555 47.6987L23.7655 48.0487L23.9825 48.3952V48.3987L25.0255 49.9702L26.114 51.5102L27.2445 53.0222L28.41 54.5097L29.6035 55.9762L34.8535 62.1432C37.6605 65.4192 40.4535 68.7057 43.236 72.0062C43.32 72.1042 43.411 72.1987 43.5125 72.2827C44.489 73.1052 45.945 72.9827 46.7675 72.0062C49.571 68.6847 52.385 65.3737 55.2095 62.0732L60.3965 55.9797L61.5865 54.5132L62.752 53.0257L63.8825 51.5137L64.971 49.9737L66.014 48.4022L66.3045 47.9332L66.581 47.4572L66.7105 47.2157L66.8365 46.9742L66.9555 46.7327L67.071 46.4877L67.1795 46.2427L67.2845 45.9942L67.3825 45.7457L67.4735 45.4972L67.5575 45.2452L67.6345 44.9932L67.7045 44.7412L67.7675 44.4892L67.82 44.2372L67.8655 43.9817L67.904 43.7262L67.932 43.4707L67.953 43.2152L67.967 42.9597L67.9705 42.7042L67.967 42.4522L67.953 42.2002L67.932 41.9482L67.904 41.6962L67.8655 41.4477L67.82 41.1992L67.7675 40.9507L67.7045 40.7057L67.6345 40.4607L67.5785 40.2822L67.519 40.1037L67.456 39.9287L67.3895 39.7537L67.3195 39.5787L67.2425 39.4037L67.1655 39.2322L67.085 39.0607L66.9975 38.8892L66.91 38.7177L66.721 38.3817L66.5215 38.0492L66.3115 37.7237L66.0875 37.4017L65.8565 37.0867L65.615 36.7787L65.3665 36.4742L65.1075 36.1802L64.8415 35.8932L64.5685 35.6132L64.292 35.3402L63.9245 34.9972L63.55 34.6682L63.165 34.3532L62.773 34.0487L62.374 33.7582L61.968 33.4782L61.555 33.2122L61.1385 32.9567L60.715 32.7152L60.2845 32.4842L59.8505 32.2637L59.4095 32.0537L58.965 31.8542L58.5135 31.6652L58.0585 31.4832L57.6 31.3117L56.8545 31.0527L56.102 30.8182L55.3425 30.6047L54.576 30.4087L53.8025 30.2337L53.022 30.0762L52.2345 29.9362L51.4435 29.8137L50.649 29.7052L49.8475 29.6142L49.0425 29.5372L48.2375 29.4742L46.617 29.3937L44.993 29.3657L43.369 29.3937L41.7485 29.4742L40.9435 29.5372L40.1385 29.6142L39.3405 29.7052L38.546 29.8137L37.755 29.9362L36.9675 30.0762L36.187 30.2337L35.4135 30.4087L34.647 30.6047L33.8875 30.8182L33.135 31.0527L32.3895 31.3117L31.931 31.4832L31.476 31.6652L31.0245 31.8542L30.58 32.0537L30.139 32.2637L29.705 32.4842L29.2745 32.7152L28.851 32.9567L28.4345 33.2122L28.0215 33.4782L27.6155 33.7582L27.2165 34.0487L26.8245 34.3532L26.4395 34.6682L26.065 34.9972L25.6975 35.3402L25.421 35.6132L25.148 35.8932L24.882 36.1802L24.623 36.4742L24.3745 36.7787L24.133 37.0867L23.902 37.4017L23.6815 37.7237L23.4715 38.0492L23.272 38.3817L23.083 38.7177L22.9955 38.8892L22.908 39.0607L22.8275 39.2322L22.7505 39.4037L22.6735 39.5787L22.6035 39.7537L22.537 39.9287L22.474 40.1037L22.4145 40.2822L22.3585 40.4607L22.313 40.6147L22.271 40.7687L22.2325 40.9227L22.1975 41.0802L22.166 41.2377L22.138 41.3952L22.1135 41.5527L22.0925 41.7102L22.075 41.8677L22.0575 42.0252L22.047 42.1827L22.0365 42.3402L22.033 42.4872Z" fill="#474747"/>
<path id="Vector_5" d="M24.56 39.6382V39.7082V39.7782L24.5635 39.8517L24.567 39.9252L24.5705 39.9987L24.5775 40.0722L24.588 40.1457L24.5985 40.2157L24.609 40.2892L24.623 40.3627L24.637 40.4362L24.6545 40.5097L24.672 40.5832L24.6895 40.6567L24.7105 40.7302L24.735 40.8002L24.756 40.8737L24.7805 40.9437L24.8085 41.0172L24.8365 41.0872L24.8645 41.1572L24.896 41.2272L24.9275 41.2972L24.959 41.3672L24.9905 41.4337L25.0255 41.5002L25.064 41.5667L25.099 41.6332L25.1375 41.6962L25.1795 41.7662L25.225 41.8327L25.267 41.8992L25.3125 41.9622L25.407 42.0882L25.505 42.2142L25.603 42.3367L25.708 42.4557L25.8165 42.5712L25.925 42.6867L26.1525 42.9142L27.115 43.8067L27.353 44.0412L27.591 44.2827L27.7065 44.4087L27.8185 44.5382L27.9305 44.6677L28.039 44.8042L28.144 44.9442L28.249 45.0912L28.347 45.2382L28.4415 45.3957L28.487 45.4727L28.5325 45.5532L28.578 45.6372L28.62 45.7177L28.865 46.2427L28.949 46.4142L28.9945 46.4982L29.04 46.5787L29.0645 46.6207L29.089 46.6592L29.1135 46.6977L29.138 46.7362L29.166 46.7712L29.194 46.8062L29.222 46.8412L29.25 46.8762L29.278 46.9112L29.3095 46.9427L29.341 46.9707L29.355 46.9882L29.3725 47.0022L29.397 47.0232L29.4215 47.0407L29.446 47.0617L29.4705 47.0792L29.4985 47.1002L29.523 47.1142L29.551 47.1317L29.579 47.1492L29.607 47.1632L29.635 47.1772L29.663 47.1912L29.691 47.2017L29.719 47.2157L29.747 47.2262L29.7785 47.2332L29.8065 47.2437L29.838 47.2507L29.866 47.2577L29.8975 47.2647L29.929 47.2717L29.957 47.2752L29.9885 47.2787H30.02L30.0515 47.2822H30.083H30.111L30.1285 47.2787H30.1425H30.16L30.174 47.2752H30.188L30.2055 47.2717L30.2195 47.2682H30.237L30.251 47.2647L30.265 47.2612L30.2825 47.2577L30.2965 47.2507L30.3105 47.2472L30.328 47.2437L30.342 47.2402L30.356 47.2332L30.3735 47.2297L30.3875 47.2227L30.4015 47.2157L30.419 47.2087L30.433 47.2052L30.447 47.1982L30.461 47.1877L30.4785 47.1807L30.4925 47.1737L30.5065 47.1667L30.5205 47.1562L30.5345 47.1492L30.5485 47.1387L30.5625 47.1282L30.58 47.1177L30.594 47.1107L30.608 47.1002L30.622 47.0862L30.636 47.0757L30.65 47.0652L30.664 47.0512L30.678 47.0407L30.7025 47.0162L30.7305 46.9882L30.7585 46.9602L30.783 46.9287L30.8075 46.8972L30.832 46.8657L30.8565 46.8307L30.881 46.7957L30.9055 46.7572L30.93 46.7187L30.951 46.6767L30.972 46.6347L30.993 46.5927L31.014 46.5472L31.035 46.5017L31.0525 46.4527L31.07 46.4002L31.0875 46.3512L31.105 46.2952L28.8545 40.2927L28.312 38.7492L28.2735 38.6267L27.619 38.0527L27.528 37.9757L27.4895 37.9442L27.444 37.9127L27.402 37.8847L27.3565 37.8532L27.311 37.8287L27.262 37.8007L27.213 37.7762L27.164 37.7517L27.1115 37.7307L27.0625 37.7097L27.01 37.6922L26.9575 37.6747L26.9015 37.6607L26.849 37.6467L26.793 37.6362L26.737 37.6257L26.681 37.6187L26.625 37.6117L26.5725 37.6082L26.5165 37.6047H26.4605L26.4045 37.6082H26.3485L26.2925 37.6152L26.24 37.6222L26.184 37.6292L26.1315 37.6397L26.079 37.6502L26.0265 37.6642L25.9775 37.6782L25.925 37.6957L25.876 37.7132L25.799 37.7447L25.7255 37.7762L25.6905 37.7937L25.6555 37.8112L25.6205 37.8287L25.5855 37.8462L25.5505 37.8637L25.519 37.8847L25.4875 37.9022L25.456 37.9232L25.4245 37.9442L25.393 37.9652L25.365 37.9862L25.3335 38.0072L25.3055 38.0282L25.2775 38.0527L25.2495 38.0772L25.225 38.0982L25.197 38.1227L25.1725 38.1472L25.148 38.1717L25.1235 38.1962L25.099 38.2207L25.0745 38.2452L25.05 38.2732L25.029 38.2977L25.008 38.3257L24.987 38.3502L24.966 38.3782L24.945 38.4062L24.9275 38.4342L24.9065 38.4622L24.889 38.4902L24.8715 38.5182L24.854 38.5497L24.8365 38.5777L24.819 38.6092L24.805 38.6372L24.7735 38.6967L24.7455 38.7597L24.721 38.8227L24.6965 38.8857L24.6755 38.9522L24.6545 39.0152L24.637 39.0817L24.6195 39.1482L24.6055 39.2182L24.595 39.2847L24.5845 39.3547L24.5775 39.4247L24.567 39.4947L24.5635 39.5647L24.56 39.6382Z" fill="#E5C79C"/>
<path id="Vector_6" d="M59.889 47.2822H59.9205H59.952H59.9835L60.015 47.2787L60.0465 47.2752L60.078 47.2717L60.1095 47.2647L60.141 47.2577L60.1725 47.2507L60.2005 47.2437L60.232 47.2332L60.26 47.2227L60.288 47.2122L60.316 47.2017L60.344 47.1877L60.372 47.1737L60.4 47.1597L60.428 47.1457L60.456 47.1317L60.484 47.1142L60.512 47.0967L60.5365 47.0792L60.561 47.0617L60.5855 47.0442L60.61 47.0232L60.6345 47.0022L60.652 46.9882L60.6695 46.9742L60.701 46.9427L60.7325 46.9112L60.7605 46.8797L60.7885 46.8447L60.8165 46.8097L60.8445 46.7747L60.8725 46.7397L60.897 46.7012L60.9215 46.6627L60.946 46.6242L60.9705 46.5857L61.016 46.5052L61.0615 46.4212L61.1455 46.2497L61.3905 45.7247L61.4325 45.6407L61.478 45.5567L61.5235 45.4762L61.569 45.3957L61.6635 45.2417L61.7615 45.0912L61.863 44.9477L61.968 44.8077L62.0765 44.6712L62.1885 44.5382L62.3005 44.4087L62.416 44.2827L62.654 44.0412L62.8955 43.8067L63.8545 42.9142L64.082 42.6867L64.1905 42.5712L64.299 42.4557L64.404 42.3367L64.5055 42.2142L64.6035 42.0882L64.698 41.9622L64.7435 41.8957L64.789 41.8292L64.831 41.7627L64.873 41.6962L64.9115 41.6332L64.95 41.5667L64.985 41.5002L65.02 41.4337L65.055 41.3672L65.0865 41.2972L65.118 41.2272L65.1495 41.1572L65.1775 41.0872L65.2055 41.0172L65.2335 40.9472L65.258 40.8737L65.2825 40.8037L65.3035 40.7302L65.3245 40.6567L65.3455 40.5832L65.363 40.5097L65.3805 40.4362L65.3945 40.3627L65.4085 40.2892L65.419 40.2157L65.4295 40.1422L65.4365 40.0687L65.4435 39.9952L65.447 39.9217L65.4505 39.8482L65.454 39.7747V39.7047V39.6347L65.4505 39.5647L65.447 39.4947L65.44 39.4247L65.433 39.3547L65.4225 39.2847L65.4085 39.2147L65.3945 39.1482L65.377 39.0817L65.3595 39.0152L65.3385 38.9487L65.3175 38.8857L65.293 38.8227L65.2685 38.7597L65.2405 38.6967L65.209 38.6372L65.1915 38.6057L65.174 38.5742L65.1565 38.5462L65.139 38.5182L65.1215 38.4902L65.104 38.4622L65.0865 38.4342L65.0655 38.4062L65.0445 38.3782L65.0235 38.3502L65.0025 38.3222L64.9815 38.2942L64.9605 38.2662L64.936 38.2417L64.9115 38.2172L64.887 38.1927L64.8625 38.1682L64.838 38.1437L64.8135 38.1192L64.7855 38.0947L64.7575 38.0702L64.7295 38.0457L64.7015 38.0247L64.6735 38.0037L64.6455 37.9827L64.614 37.9617L64.5825 37.9407L64.551 37.9197L64.5195 37.8987L64.488 37.8777L64.4565 37.8602L64.4215 37.8427L64.3865 37.8252L64.3515 37.8077L64.3165 37.7902L64.2815 37.7727L64.208 37.7412L64.131 37.7097L64.082 37.6922L64.033 37.6747L63.9805 37.6607L63.928 37.6467L63.8755 37.6362L63.823 37.6257L63.7705 37.6187L63.7145 37.6117L63.6585 37.6082L63.6025 37.6047H63.5465H63.4905L63.4345 37.6082L63.3785 37.6117L63.3225 37.6187L63.2665 37.6257L63.2105 37.6362L63.1545 37.6467L63.0985 37.6607L63.046 37.6747L62.9935 37.6922L62.941 37.7097L62.8885 37.7307L62.8395 37.7517L62.7905 37.7762L62.7415 37.8007L62.6925 37.8287L62.647 37.8567L62.6015 37.8847L62.556 37.9162L62.514 37.9477L62.472 37.9792L61.9855 38.3887L61.884 38.4727L61.779 38.5497L61.7265 38.5847L61.674 38.6197C60.729 41.1537 59.8085 43.6982 58.909 46.2532C58.902 46.2672 58.8985 46.2812 58.8915 46.2987L58.909 46.3512L58.9265 46.4037L58.944 46.4527L58.9615 46.5017L58.9825 46.5472L59.0035 46.5927L59.0245 46.6347L59.0455 46.6767L59.0665 46.7187L59.091 46.7572L59.1155 46.7957L59.14 46.8307L59.1645 46.8657L59.189 46.8972L59.2135 46.9287L59.238 46.9567L59.266 46.9847L59.294 47.0127L59.322 47.0372L59.336 47.0477L59.35 47.0582L59.364 47.0687L59.378 47.0792L59.392 47.0897L59.406 47.1002L59.42 47.1107L59.434 47.1212L59.448 47.1317L59.462 47.1422L59.476 47.1527L59.49 47.1597L59.504 47.1667L59.518 47.1737L59.532 47.1807L59.546 47.1877L59.56 47.1947L59.574 47.2017L59.588 47.2087L59.602 47.2157L59.616 47.2227L59.63 47.2297L59.644 47.2332L59.658 47.2367L59.672 47.2402L59.686 47.2437L59.7 47.2472L59.714 47.2507L59.728 47.2542L59.742 47.2577L59.756 47.2612L59.77 47.2647L59.784 47.2682H59.798H59.812H59.826H59.84L59.889 47.2822Z" fill="#E5C79C"/>
<path id="Vector_7" d="M34.801 61.9998L35.0635 60.4493L35.893 55.5423L35.8965 55.5458V55.5388H54.107L55.2095 62.0593C52.3815 65.3598 49.5675 68.6708 46.7675 71.9923C45.945 72.9688 44.489 73.0913 43.5125 72.2688C43.4145 72.1848 43.32 72.0938 43.236 71.9923C40.4535 68.6953 37.6605 65.4088 34.8535 62.1293L34.766 62.0243L34.801 61.9998Z" fill="#E5C79C"/>
<path id="Vector_8" d="M27.227 34.0278L27.626 33.7373L28.032 33.4573L28.445 33.1913L28.8615 32.9358L29.285 32.6943L29.7155 32.4633L30.1495 32.2428L30.5905 32.0328L31.035 31.8333L31.4865 31.6443L31.9415 31.4623L32.4 31.2908L32.4455 31.2768L33.1455 31.0353L33.898 30.8008L34.6575 30.5873L35.424 30.3913L36.1975 30.2163L36.978 30.0588L37.7655 29.9188L38.5565 29.7963L39.351 29.6878L40.149 29.5968L40.954 29.5198L41.759 29.4568L43.3795 29.3763L45.0035 29.3483L46.6275 29.3763L48.248 29.4568L49.053 29.5198L49.858 29.5968L50.6595 29.6878L51.454 29.7963L52.245 29.9188L53.0325 30.0588L53.813 30.2163L54.5865 30.3913L55.353 30.5873L56.1125 30.8008L56.865 31.0353L57.565 31.2768L57.6105 31.2908L58.069 31.4623L58.524 31.6443L58.9755 31.8333L59.42 32.0328L59.861 32.2428L60.295 32.4633L60.7255 32.6943L61.149 32.9358L61.5655 33.1913L61.9785 33.4573L62.3845 33.7373L62.7835 34.0278L62.9095 34.1258L62.8325 34.5598L62.745 34.9973L62.5455 35.8723L62.3145 36.7473L62.2235 37.0518L62.0555 37.6223C61.9295 37.9548 61.807 38.2873 61.681 38.6198C60.736 41.1538 59.8155 43.6983 58.916 46.2533C58.909 46.2673 58.9055 46.2813 58.8985 46.2988L58.447 47.5343L57.964 48.7523L57.4425 49.9528L57.166 50.5443L56.879 51.1288L56.5815 51.7063L56.27 52.2768L55.9445 52.8403L55.6085 53.3968L55.2585 53.9463L54.891 54.4853L54.5095 55.0173L54.1105 55.5388L53.897 55.8118L53.3125 56.5398L52.7035 57.2573L52.3885 57.6073L52.0665 57.9503L51.7375 58.2828L51.4015 58.6048L51.055 58.9163L50.88 59.0668L50.7015 59.2138L50.5195 59.3573L50.334 59.4973L50.1485 59.6338L49.9595 59.7668L49.767 59.8928L49.571 60.0153L49.375 60.1343L49.1755 60.2463L48.9725 60.3548L48.766 60.4563L48.556 60.5543L48.3425 60.6453C46.204 61.5273 43.8065 61.5273 41.6715 60.6453L41.458 60.5543L41.248 60.4563L41.0415 60.3548L40.8385 60.2463L40.639 60.1343L40.4395 60.0153L40.2435 59.8928L40.051 59.7668L39.862 59.6338L39.6765 59.4973L39.491 59.3573L39.309 59.2138L39.1305 59.0668L38.9555 58.9163L38.609 58.6048L38.273 58.2828L37.944 57.9503L37.622 57.6073L37.307 57.2573L36.698 56.5398L36.1135 55.8118L35.9 55.5388L35.501 55.0173L35.1195 54.4853L34.752 53.9463L34.402 53.3968L34.0625 52.8403L33.7405 52.2768L33.429 51.7063L33.1315 51.1288L32.8445 50.5443L32.568 49.9528L32.0465 48.7523L31.5635 47.5343L31.112 46.2988L28.858 40.2928L28.319 38.7528L28.2805 38.6303L28.0705 37.9793L27.836 37.2058L27.794 37.0518L27.6225 36.4358L27.4265 35.6658L27.255 34.8958L27.1115 34.1293L27.227 34.0278Z" fill="#F4D8A8"/>
<path id="Vector_9" d="M58.062 31.4588L58.517 31.6408L58.9685 31.8298L59.413 32.0293L59.854 32.2393L60.288 32.4598L60.7185 32.6908L61.142 32.9323L61.5585 33.1878L61.9715 33.4538L62.3775 33.7338L62.7765 34.0243L62.9025 34.1223L62.8255 34.5563L62.738 34.9938L62.5385 35.8688L62.3075 36.7438L62.2165 37.0483L62.0485 37.6188C61.9225 37.9513 61.8 38.2838 61.674 38.6163C60.729 41.1503 59.8085 43.6948 58.909 46.2498L59.0385 44.3143L59.105 42.5538L59.1155 41.7453L59.1085 40.9893L59.098 40.6428L59.0875 40.2858L59.049 39.6348L59.0245 39.3303L58.9965 39.0398L58.965 38.7633L58.9265 38.5008L58.8845 38.2523L58.839 38.0213L58.79 37.8043L58.7655 37.6993L58.7375 37.6013L58.7095 37.5068L58.6815 37.4158L58.65 37.3283L58.6185 37.2443L58.587 37.1638L58.5555 37.0868L58.5205 37.0133L58.4855 36.9433L58.4505 36.8768L58.433 36.8453L58.4155 36.8138L58.398 36.7823L58.3805 36.7543L58.363 36.7263L58.3455 36.6983L58.3245 36.6703L58.307 36.6458L58.286 36.6213L58.265 36.5968L58.244 36.5723L58.223 36.5513L58.202 36.5303L58.181 36.5093L58.1845 36.1768L58.188 35.9528L58.1845 35.4138L58.1705 34.8923L58.146 34.3883L58.1145 33.9053L58.0725 33.4433L58.02 33.0023L57.957 32.5823C57.88 32.1273 57.747 31.6863 57.5545 31.2698L57.6 31.2838L58.062 31.4588Z" fill="#C16827"/>
<path id="Vector_10" d="M27.2271 34.0277L27.6261 33.7372L28.0321 33.4572L28.4451 33.1912L28.8616 32.9357L29.2851 32.6942L29.7156 32.4632L30.1496 32.2427L30.5906 32.0327L31.0351 31.8332L31.4866 31.6442L31.9416 31.4622L32.4001 31.2907L32.4456 31.2767C32.2531 31.6932 32.1201 32.1342 32.0431 32.5892L31.9801 33.0092L31.9276 33.4502L31.8856 33.9122L31.8541 34.3952L31.8331 34.8992L31.8191 35.4207L31.8156 35.9597L31.8191 36.1837L31.8226 36.5162L31.7701 36.5792L31.7176 36.6457L31.6651 36.7157L31.6161 36.7892L31.5671 36.8662L31.5181 36.9432L31.4726 37.0237L31.4271 37.1077L31.3851 37.1952L31.3431 37.2862L31.3011 37.3807L31.2626 37.4787L31.2241 37.5802L31.1856 37.6817L31.1506 37.7867L31.1156 37.8952L31.0806 38.0072L31.0491 38.1227L30.9896 38.3607L30.9371 38.6092L30.8881 38.8717L30.8461 39.1447L30.8111 39.4282L30.7796 39.7257L30.7551 40.0267V40.0337L30.7341 40.3522L30.7201 40.6812L30.7096 41.3707L30.7201 42.1022L30.7551 42.8722L30.8111 43.6772L30.8916 44.5207L30.9931 45.3957L31.1156 46.3022L28.8616 40.2962L28.3226 38.7562L28.2841 38.6337L28.0741 37.9827L27.8396 37.2092L27.7976 37.0552L27.6261 36.4392L27.4301 35.6692L27.2586 34.8992L27.1151 34.1327L27.2271 34.0277Z" fill="#C16827"/>
<path id="Vector_11" d="M27.8709 37.0238C29.1659 36.6598 30.4819 36.3798 31.8084 36.1803C33.6809 35.9003 35.5779 35.7883 37.4749 35.8443C38.8959 35.8863 40.3099 36.0648 41.6924 36.3833C42.0739 36.4708 42.4449 36.6143 42.7844 36.8033C44.1564 37.5733 45.8329 37.5733 47.2084 36.8033C47.5514 36.6108 47.9189 36.4708 48.3004 36.3833C49.6864 36.0683 51.1004 35.8863 52.5179 35.8443C54.4149 35.7883 56.3119 35.9003 58.1809 36.1803C59.5389 36.3833 60.8829 36.6703 62.2059 37.0483L62.0379 37.6188C61.9119 37.9513 61.7894 38.2838 61.6634 38.6163C61.4779 38.5883 61.2889 38.5603 61.1034 38.5358C60.2634 38.4238 59.4794 38.9733 59.2939 39.7993C59.2309 40.0793 59.1609 40.3628 59.0874 40.6393C58.8774 41.4198 58.6184 42.1898 58.3139 42.9388C57.9149 43.9188 57.0644 44.6468 56.0354 44.8918C54.1909 45.3258 52.2764 45.3993 50.4039 45.1018C49.0774 44.8918 47.9434 44.0343 47.3799 42.8128C46.9354 41.8433 46.5749 40.8388 46.3089 39.8098C46.1864 39.3338 45.8119 38.9593 45.3324 38.8368C44.6044 38.6478 43.8589 39.0818 43.6699 39.8098C43.4004 40.8423 43.0434 41.8468 42.5989 42.8128C42.0389 44.0343 40.9049 44.8918 39.5749 45.1018C37.7024 45.3958 35.7914 45.3258 33.9434 44.8918C32.9109 44.6503 32.0639 43.9223 31.6649 42.9388C31.2799 41.9903 30.9684 41.0138 30.7339 40.0198C30.7164 39.9463 30.6989 39.8728 30.6814 39.7993C30.4959 38.9733 29.7119 38.4238 28.8719 38.5358C28.6969 38.5603 28.5254 38.5848 28.3504 38.6093L28.2594 38.6233L28.0494 37.9723L27.8149 37.1988L27.7729 37.0448L27.8709 37.0238Z" fill="#1C1C1C"/>
<path id="Vector_12" opacity="0.2" d="M35.8931 55.5388L35.0636 60.4458L35.5816 61.0268L35.8476 61.3103L36.1206 61.5903L36.3971 61.8633L36.6806 62.1293L36.9676 62.3848L37.2616 62.6333L37.5626 62.8713L37.8706 63.0988L38.0281 63.2073L38.1856 63.3158L38.3466 63.4208L38.5076 63.5223L38.6721 63.6203L38.8366 63.7148L39.0046 63.8058L39.1761 63.8933L39.3476 63.9773L39.5226 64.0578L39.6976 64.1348L39.8761 64.2083C42.0251 65.0553 44.4261 65.0203 46.5471 64.1033L46.6906 64.0403L46.8306 63.9738L46.9706 63.9038L47.1106 63.8338L47.2471 63.7603L47.3836 63.6833L47.6496 63.5258L47.9121 63.3613L48.1676 63.1863L48.4196 63.0043L48.6646 62.8153L48.9061 62.6193L49.1441 62.4163L49.3751 62.2063L49.6026 61.9928L49.8266 61.7723L50.0471 61.5483L50.4776 61.0863C51.9651 59.4308 53.1936 57.5618 54.1176 55.5388L53.9041 55.8118L53.3196 56.5398L52.7106 57.2573L52.3956 57.6073L52.0736 57.9503L51.7446 58.2828L51.4086 58.6048L51.0621 58.9163L50.8871 59.0668L50.7086 59.2138L50.5266 59.3573L50.3411 59.4973L50.1556 59.6338L49.9666 59.7668L49.7741 59.8928L49.5781 60.0153L49.3821 60.1343L49.1826 60.2463L48.9796 60.3548L48.7731 60.4563L48.5631 60.5543L48.3496 60.6453C46.2111 61.5273 43.8136 61.5273 41.6786 60.6453L41.4651 60.5543L41.2551 60.4563L41.0486 60.3548L40.8456 60.2463L40.6461 60.1343L40.4466 60.0153L40.2506 59.8928L40.0581 59.7668L39.8691 59.6338L39.6836 59.4973L39.4981 59.3573L39.3161 59.2138L39.1376 59.0668L38.9626 58.9163L38.6161 58.6048L38.2801 58.2828L37.9511 57.9503L37.6291 57.6073L37.3141 57.2573L36.7051 56.5398L36.1206 55.8118L35.8931 55.5388Z" fill="black"/>
</g>
<circle id="Ellipse 189" cx="45.2352" cy="45.4125" r="43.5" stroke="#D00D4F" stroke-width="3"/>
</g>
</svg>
